<?xml version="1.0" encoding="UTF-8" standalone="no"?>
<!-- Created with Inkscape (http://www.inkscape.org/) -->

<svg
   version="1.1"
   id="svg1"
   width="1365.3333"
   height="1365.3333"
   viewBox="0 0 1365.3333 1365.3333"
   sodipodi:docname="logo.svg"
   inkscape:version="1.4.2 (ebf0e940d0, 2025-05-08)"
   xmlns:inkscape="http://www.inkscape.org/namespaces/inkscape"
   xmlns:sodipodi="http://sodipodi.sourceforge.net/DTD/sodipodi-0.dtd"
   xmlns="http://www.w3.org/2000/svg"
   xmlns:svg="http://www.w3.org/2000/svg">
  <sodipodi:namedview
     id="namedview1"
     pagecolor="#ffffff"
     bordercolor="#000000"
     borderopacity="0.25"
     inkscape:showpageshadow="2"
     inkscape:pageopacity="0.0"
     inkscape:pagecheckerboard="0"
     inkscape:deskcolor="#d1d1d1"
     inkscape:zoom="0.42675002"
     inkscape:cx="609.25598"
     inkscape:cy="543.6438"
     inkscape:window-width="1155"
     inkscape:window-height="1027"
     inkscape:window-x="1928"
     inkscape:window-y="8"
     inkscape:window-maximized="0"
     inkscape:current-layer="svg1"
     showguides="true" />
  <defs
     id="defs1" />
  <g
     id="g1">
    <g
       id="g9"
       transform="translate(-602.80907,9.4188917)">
      <g
         id="g2"
         transform="translate(602.74463,-11.655284)">
        <path
           style="fill:#e9eaea"
           d="m 703.81073,993.10427 c -0.44551,-1.77506 -0.44636,-4.17506 -0.002,-5.33334 0.44447,-1.15827 0.23524,-2.10595 -0.46495,-2.10595 -0.70019,0 -1.32578,-1.95 -1.39019,-4.33333 -0.20385,-7.54246 2.74221,-0.23232 3.19491,7.92762 0.42314,7.62716 -0.0485,8.98248 -1.33788,3.845 z m 0.019,-21.49083 c -1.28664,-3.35293 -0.90708,-4.21808 0.66471,-1.51512 0.77825,1.33834 1.13413,2.71421 0.79084,3.0575 -0.34329,0.3433 -0.99829,-0.35078 -1.45555,-1.54238 z m 4.0575,-12.17068 c -0.48889,-0.48889 -0.88889,-1.50889 -0.88889,-2.26667 0,-0.83547 0.62103,-0.75675 1.57778,0.2 0.86778,0.86778 1.26778,1.88778 0.88889,2.26667 -0.37889,0.37889 -1.08889,0.28889 -1.57778,-0.2 z m 1.81832,-8.79189 c -0.0223,-1.2911 1.17248,-7.79322 2.65507,-14.44916 2.08463,-9.35879 2.52762,-14.83032 1.95442,-24.14024 -0.79276,-12.87612 -2.08753,-16.47215 -8.49419,-23.59134 -2.24124,-2.49051 -5.14318,-6.007 -6.44875,-7.81441 -1.30556,-1.80742 -2.97376,-3.96973 -3.70709,-4.80514 -3.93985,-4.48825 -8.4674,-11.27375 -7.90053,-11.84062 0.35795,-0.35795 0.93201,-1.932 1.27568,-3.49789 0.34367,-1.5659 0.95561,-4.19708 1.35987,-5.84708 0.40426,-1.65 1.03955,-4.5 1.41175,-6.33333 0.37221,-1.83334 1.24145,-3.53334 1.93165,-3.77778 0.6902,-0.24445 1.25491,-1.47445 1.25491,-2.73333 0,-1.25889 0.72,-3.00889 1.6,-3.88889 0.88,-0.88 1.111,-1.6 0.51332,-1.6 -0.59767,0 -0.10384,-1.5 1.09741,-3.33334 1.20124,-1.83333 1.84914,-3.33333 1.43976,-3.33333 -0.40937,0 -0.13017,-1.14753 0.62044,-2.55007 1.06032,-1.98122 0.43643,-4.53385 -2.7968,-11.44312 -2.28886,-4.89118 -5.02259,-9.22345 -6.07495,-9.62728 -1.16015,-0.44519 -4.00475,1.56637 -7.22586,5.10978 -5.91629,6.50826 -14.15112,15.81529 -17.10699,19.33436 -3.8243,4.55297 -2.84034,46.89394 1.20298,51.76585 0.75582,0.91071 1.00495,2.02512 0.5536,2.47646 -0.45134,0.45134 -1.86416,-0.4681 -3.1396,-2.04321 l -2.31899,-2.86383 -4.3596,4.96531 c -2.39778,2.73092 -4.68211,4.64279 -5.0763,4.2486 -0.39419,-0.39418 0.69025,-2.21433 2.40986,-4.04478 1.71961,-1.83044 2.61739,-3.32807 1.99506,-3.32807 -0.62233,0 0.19004,-1.40673 1.80527,-3.12606 1.61523,-1.71933 2.63816,-3.96933 2.27318,-5 -0.36498,-1.03067 -0.9074,-11.14944 -1.20538,-22.48617 -0.53652,-20.41225 -0.50784,-20.6645 2.95689,-26 1.92427,-2.96327 4.09973,-6.06425 4.83436,-6.89106 0.73462,-0.82681 2.23568,-2.83268 3.33568,-4.45748 1.1,-1.62481 3.35152,-4.54832 5.00338,-6.49671 1.65186,-1.94838 4.09625,-5.85929 5.43198,-8.69089 l 2.42859,-5.14838 -6.53831,-16.18496 c -3.59608,-8.90172 -8.32211,-19.93703 -10.5023,-24.52291 -6.33048,-13.31574 -6.59136,-17.80013 -1.76306,-30.30661 2.2696,-5.87882 6.09535,-16.08876 8.50168,-22.68876 2.40632,-6.6 7.01428,-16.9443 10.23991,-22.98733 6.50656,-12.18965 7.0827,-16.46872 3.81652,-28.346 -3.47986,-12.65435 -3.5268,-23.75622 -0.12965,-30.66667 2.68276,-5.45725 3.15199,-6.56293 3.67792,-8.66666 0.0917,-0.36667 0.31667,-1.26667 0.5,-2 0.18334,-0.73334 0.45424,-1.48334 0.60202,-1.66667 0.14777,-0.18333 0.4709,-1.23333 0.71805,-2.33333 0.24715,-1.1 1.28441,-4.4 2.30502,-7.33333 2.13224,-6.12828 2.1235,-6.60598 -0.21958,-12 -0.95565,-2.2 -2.20166,-5.2 -2.76891,-6.66667 -0.56725,-1.46667 -1.99255,-4.85734 -3.16732,-7.53484 -1.17477,-2.67749 -2.13594,-5.7372 -2.13594,-6.79936 0,-1.06215 -1.76391,-4.55757 -3.91979,-7.7676 -2.15588,-3.21003 -3.74175,-6.01444 -3.52417,-6.23202 0.87857,-0.87857 4.71315,1.35892 4.08122,2.3814 -0.37442,0.60582 -0.071,1.47836 0.67432,1.93898 0.7453,0.46062 1.35649,0.35208 1.35821,-0.2412 0.002,-0.59328 1.80461,-3.17869 4.00642,-5.74536 2.20181,-2.56667 4.34084,-5.71667 4.75339,-7 0.41255,-1.28333 1.26923,-2.33333 1.90373,-2.33333 2.41301,0 2.73648,-5.46446 0.60963,-10.29887 -5.12185,-11.64218 -8.05399,-19.94764 -9.11887,-25.82976 -0.47861,-2.64374 -3.55033,-8.24945 -6.84611,-12.49376 -3.28789,-4.23415 -5.97872,-8.07627 -5.97961,-8.53803 -10e-4,-0.72312 -2.2606,-3.68448 -7.97218,-10.44997 -0.74774,-0.88571 -1.35953,-1.92693 -1.35953,-2.31382 0,-0.38688 -2.7,-3.32758 -6,-6.53488 -3.3,-3.20731 -6,-6.55894 -6,-7.44809 0,-1.04339 0.76546,-0.85117 2.15873,0.5421 2.59598,2.59598 3.09893,2.22453 3.77286,-2.78635 0.82616,-6.14272 3.01664,-17.1819 3.40937,-17.1819 0.11641,0 0.50271,-1.8 0.85843,-4 0.35572,-2.2 2.40639,-8.18864 4.55703,-13.30808 2.15064,-5.11945 3.91025,-10.06945 3.91025,-11 0,-0.93055 0.9,-1.69192 2,-1.69192 2.80133,0 2.58371,1.1993 -2.47716,13.65106 -5.75083,14.14933 -6.50895,16.06779 -6.9875,17.68227 -1.50964,5.09306 -2.2122,10.26385 -2.20032,16.19419 0.0149,7.4353 -0.58662,6.51862 16.28806,24.82233 l 7.28974,7.90708 3.10695,-3.79513 c 1.70882,-2.08733 4.0017,-5.87411 5.0953,-8.41507 1.0936,-2.54097 2.41509,-4.94097 2.93665,-5.33334 1.57852,-1.18752 4.18774,-5.70167 7.15578,-12.38006 1.54809,-3.48333 3.3347,-6.33333 3.97027,-6.33333 0.63556,0 1.15556,-0.62429 1.15556,-1.38732 0,-0.76303 1.26392,-3.09687 2.80871,-5.1863 2.35272,-3.18223 2.63609,-4.74281 1.74545,-9.61268 -1.20181,-6.57128 -1.4175,-7.54038 -1.88749,-8.48036 -0.18334,-0.36667 -0.46016,-1.11667 -0.61516,-1.66667 -0.155,-0.55 -0.72621,-2.00315 -1.26936,-3.22921 -0.54315,-1.22607 -1.19542,-3.32607 -1.4495,-4.66667 -0.25407,-1.3406 -0.57891,-2.73745 -0.72186,-3.10412 -0.14295,-0.36667 -0.18886,-1.11667 -0.10202,-1.66667 0.0868,-0.55 -0.41491,-1 -1.11502,-1 -0.7001,0 -1.72303,-2.25 -2.27318,-5 -1.2871,-6.43375 -1.38871,-6.86961 -1.78723,-7.66666 -0.18334,-0.36667 -0.46016,-1.11667 -0.61516,-1.66667 -0.155,-0.55 -0.63443,-1.9 -1.06539,-3 -3.80672,-9.71635 -5.356,-18.28069 -3.513,-19.41972 0.68037,-0.4205 0.89185,-1.32308 0.46994,-2.00574 -0.42191,-0.68266 -0.20906,-1.2412 0.473,-1.2412 0.68205,0 1.10429,2.25 0.93829,5 -0.16599,2.74999 0.19943,5.64709 0.81206,6.43797 0.61262,0.79089 1.31033,2.72543 1.55047,4.29898 0.24014,1.57354 0.85208,3.27645 1.35987,3.78424 0.50779,0.50779 0.92694,1.87325 0.93146,3.03436 0.005,1.16111 0.89407,3.80956 1.97679,5.88544 2.87866,5.51925 8.75905,22.22567 7.82307,22.22567 -0.44069,0 -0.0543,0.9 0.85859,2 0.91292,1.1 1.21292,2 0.66667,2 -0.54625,0 -0.37074,0.75 0.39003,1.66667 0.76076,0.91666 1.3955,1.96666 1.41052,2.33333 0.015,0.36667 0.43076,1.71801 0.92385,3.00298 0.89276,2.32649 0.13182,6.37384 -2.50622,13.33035 -0.48667,1.28333 -1.28303,3.38333 -1.76969,4.66667 -0.48666,1.28333 -0.94361,2.63333 -1.01543,3 -0.51258,2.6169 -3.94753,9.33333 -4.77329,9.33333 -0.5592,0 -2.35609,3.3 -3.9931,7.33333 -1.63701,4.03334 -3.42518,7.33334 -3.97372,7.33334 -0.54853,0 -2.02847,2.7 -3.28875,6 -1.26028,3.3 -2.9208,5.99999 -3.69003,5.99999 -0.86787,0 -1.09854,1.89741 -0.60787,5 1.17137,7.40668 1.53316,8.71752 3.28415,11.89925 0.87754,1.59459 1.79962,3.99459 2.04907,5.33333 0.24944,1.33875 1.08425,3.93409 1.85513,5.76742 0.77088,1.83334 2.05708,4.98334 2.85822,7 1.76489,4.44264 2.50389,4.5082 7.51498,0.66667 8.99113,-6.89264 14.44419,-13.21919 15.22745,-17.66667 0.12916,-0.73333 1.11938,-2.68333 2.2005,-4.33333 1.08112,-1.65 1.63073,-3 1.22136,-3 -0.40937,0 0.006,-1.35 0.92201,-3 0.91649,-1.65 1.6876,-3.4 1.71358,-3.88889 0.026,-0.48889 0.45591,-1.29755 0.95538,-1.79702 0.49947,-0.49947 0.54751,-1.8479 0.10675,-2.9965 -0.52881,-1.37805 -0.27081,-1.76046 0.75854,-1.12429 0.85795,0.53024 1.55991,0.45635 1.55991,-0.1642 0,-0.62056 1.35,-1.22295 3,-1.33864 2.63714,-0.18492 2.71778,-0.05 0.66667,1.11584 -1.28333,0.72942 -2.33333,2.19639 -2.33333,3.25996 0,1.06356 -0.63541,1.93374 -1.41203,1.93374 -0.77661,0 -1.06975,0.55381 -0.65142,1.23068 0.41833,0.67687 -0.62282,5.04198 -2.31368,9.70024 l -3.07429,8.46957 4.39238,-0.51279 c 2.63627,-0.30777 4.39237,0.0786 4.39237,0.96643 0,0.81356 -0.6,1.5542 -1.33333,1.64587 -5.00882,0.6261 -11.25483,4.37415 -16.01797,9.61192 -2.55679,2.81155 -6.1487,6.74787 -7.98203,8.74737 -1.83334,1.9995 -4.53334,5.31562 -6,7.36916 -1.46667,2.05354 -3.41667,4.52436 -4.33333,5.49072 -0.91667,0.96636 -1.66667,2.39988 -1.66667,3.18559 0,0.78571 -0.6,1.42857 -1.33333,1.42857 -0.73334,0 -1.33334,0.9 -1.33334,2 0,1.1 -0.58284,2 -1.29521,2 -0.71236,0 -1.78987,1.90894 -2.39445,4.2421 -0.94916,3.66296 -0.19717,5.89281 5.50823,16.33333 8.39346,15.3595 8.92284,22.24838 2.77904,36.16412 -1.27736,2.89325 -2.46424,5.89425 -2.6375,6.66889 -0.17326,0.77465 -1.51578,3.89374 -2.98338,6.93132 -2.91339,6.03002 -2.86353,12.74592 0.18059,24.3269 0.79455,3.0228 1.85739,10.26918 2.08603,14.22256 0.0929,1.60586 9.59743,-2.65834 13.12659,-5.88923 1.0013,-0.91666 2.40277,-1.66666 3.11438,-1.66666 0.71162,0 2.61876,-1.23774 4.2381,-2.75054 2.57331,-2.40401 2.91878,-4.00835 2.74214,-12.73404 -0.14206,-7.01707 0.25412,-9.82938 1.33333,-9.46483 0.90052,0.30419 1.54666,3.50233 1.56257,7.73404 0.0149,3.96845 0.50033,7.96537 1.07869,8.88204 1.19947,1.90108 5.78075,2.25616 6.44974,0.49989 0.24444,-0.64173 4.24502,-3.07589 8.89016,-5.40926 7.25194,-3.64282 8.38014,-3.90194 7.98174,-1.83323 -0.25519,1.3251 -1.35576,2.40926 -2.44572,2.40926 -1.08995,0 -3.1226,1.02925 -4.517,2.28723 -1.39439,1.25797 -2.98152,2.01142 -3.52695,1.67432 -0.54543,-0.33709 -1.32964,0.26779 -1.7427,1.34418 -0.41305,1.07639 0.27408,2.5547 1.52696,3.28513 1.86173,1.0854 1.91252,1.36431 0.27795,1.52649 -1.1,0.10914 -2.6,0.0643 -3.33333,-0.0996 -0.73333,-0.16394 -2.23333,-0.46362 -3.33333,-0.66594 -1.79551,-0.33026 -14.34717,5.47865 -16,7.40479 -0.36667,0.4273 -4.44836,3.32576 -9.07044,6.44102 -7.41522,4.99783 -8.92491,6.78973 -12.83408,15.23326 -4.48492,9.68708 -6.22299,13.81519 -6.83581,16.23582 -0.18565,0.73333 -2.10871,5.53333 -4.27346,10.66666 -4.50714,10.68789 -6.01761,14.38751 -6.26028,15.33333 -0.0941,0.36667 -1.14445,2.4874 -2.33418,4.71274 -3.1776,5.9436 -4.30957,13.63432 -2.5601,17.39368 1.47385,3.1671 3.0277,6.93069 5.32329,12.89358 3.32215,8.62941 6.7963,16.95921 8.33395,19.98191 0.64778,1.27338 1.17778,2.94037 1.17778,3.70441 0,0.76405 2.9173,7.52219 6.48289,15.01809 9.34109,19.63768 11.35522,24.18765 11.1366,25.15779 -0.22633,1.00437 7.03612,8.32548 13.03255,13.1378 7.50447,6.02256 10.97545,9.48361 10.24419,10.21487 -0.39596,0.39596 -1.96973,-0.44443 -3.49725,-1.86754 -1.52753,-1.42311 -4.4172,-3.41182 -6.42149,-4.41936 -2.00429,-1.00753 -5.29007,-2.94144 -7.30173,-4.29757 -2.01166,-1.35613 -4.26593,-2.08971 -5.00948,-1.63017 -1.46537,0.90565 -5.77718,8.66643 -4.81498,8.66643 0.32254,0 -1.22111,3.73148 -3.43034,8.29217 -6.18624,12.77078 -6.20658,15.21996 -0.2035,24.50789 6.50732,10.06809 6.4337,9.98266 22.75908,26.40854 7.50376,7.54996 13.25393,14.11648 12.77815,14.59226 -0.81789,0.81789 -1.76256,0.11529 -8.82943,-6.56688 -1.6089,-1.52131 -3.98611,-3.15664 -5.2827,-3.63407 -2.15431,-0.79325 -2.34213,0.19183 -2.17981,11.43269 0.12737,8.82073 -0.65073,15.50073 -2.75036,23.61174 -3.11925,12.04988 -5.26477,17.27781 -5.33852,13.00821 z m -37.37387,-46.24053 c 0,-1.42338 0.51332,-2.90523 1.14072,-3.29298 0.6274,-0.38775 0.85745,0.77684 0.51123,2.58798 -0.75202,3.93394 -1.65195,4.31801 -1.65195,0.705 z m -27.41109,-8.41202 c 3.52093,-4.21667 6.64991,-7.66667 6.9533,-7.66667 1.429,0 -2.55517,5.19017 -7.67638,10 l -5.6786,5.33334 z m 27.25755,2 c -0.0845,-0.55 -0.0356,-2.11559 0.1085,-3.47908 0.17575,-1.66267 -0.28062,-2.14369 -1.3858,-1.46066 -1.1279,0.69708 -1.30827,0.46898 -0.57165,-0.7229 0.84028,-1.3596 1.47002,-1.20276 2.87268,0.71549 2.1151,2.89258 2.35298,5.94715 0.46314,5.94715 -0.73333,0 -1.40243,-0.45 -1.48687,-1 z m 72.7842,-245.60842 c 0.43343,-0.70131 1.66884,-0.93711 2.74536,-0.52401 2.75615,1.05763 2.43136,1.79911 -0.78806,1.79911 -1.50995,0 -2.39073,-0.57379 -1.9573,-1.2751 z m 7.36932,-16.05317 c 0,-1.61641 3.73935,-3.37682 4.83837,-2.27781 0.39784,0.39785 -0.52803,1.39308 -2.05751,2.21163 -1.92825,1.03197 -2.78086,1.05226 -2.78086,0.0662 z m -75.99999,-96.08374 c 0,-0.77662 0.6,-1.04121 1.33333,-0.58798 0.73333,0.45322 1.33333,1.08863 1.33333,1.41202 0,0.32339 -0.6,0.58798 -1.33333,0.58798 -0.73333,0 -1.33333,-0.63541 -1.33333,-1.41202 z m 63.99999,-31.25465 c 0,-1.1 1.05,-2.05564 2.33334,-2.12365 6.68469,-0.35424 14.48919,0.48893 15.66666,1.69257 0.90573,0.92586 -0.71145,1.16959 -5.04262,0.75997 -3.50677,-0.33164 -6.69218,-0.0913 -7.07868,0.53406 -1.19716,1.93704 -5.8787,1.24983 -5.8787,-0.86295 z m -91.46001,-58.15496 c -2.49778,-2.77475 -2.49777,-2.81352 7.2e-4,-2.33333 1.39738,0.26856 2.69429,1.5383 2.88202,2.82163 0.43498,2.97359 0.19736,2.93334 -2.88274,-0.4883 z m -5.20665,-3.84503 c -0.45322,-0.73334 -0.18863,-1.33334 0.58798,-1.33334 0.77661,0 1.41202,0.6 1.41202,1.33334 0,0.73333 -0.26459,1.33333 -0.58798,1.33333 -0.32338,0 -0.95879,-0.6 -1.41202,-1.33333 z m 58.6837,-82.63911 c -0.44386,-0.71818 -0.17927,-2.47873 0.58797,-3.91234 0.76725,-1.43362 1.395,-3.96505 1.395,-5.62542 0,-4.60626 6.63109,-25.33582 7.86134,-24.57548 1.84774,1.14196 -6.18631,31.41902 -8.33706,31.41902 -0.62861,0 -0.79756,0.9 -0.37545,2 0.86027,2.24182 0.10934,2.70243 -1.1318,0.69422 z"
           id="path7"
           sodipodi:nodetypes="sssssssssssssssssssssssssssssssssssssssscsssssssssssscsssssssssssssssssssscsssssscssssssssssssssscsssssssssssssssssssssssssscsssssssssssssssssssssssscssssssssssscssssssssssssssssssssssssssssssssssssssssssssssssssssssssssssssssssssssssscssssssssssssssssssssssssssssssssssssssssssss" />
        <path
           style="fill:#13c2eb;fill-opacity:1"
           d="m 647.665,1224.9175 c -30.78668,-18.3324 -57.70273,-38.3049 -79.38978,-58.9094 -14.3802,-13.6624 -14.55276,-13.6625 -14.59201,-0.01 -0.01,3.4833 -0.55645,6.3333 -1.2143,6.3333 -1.80464,0 -21.65261,-31.246 -32.02436,-50.415 -5.0347,-9.3051 -12.34566,-24.2687 -16.24656,-33.2526 -4.10041,-9.4433 -7.47619,-15.6308 -8.00191,-14.6667 -0.50014,0.9172 -1.65944,7.2177 -2.57623,14.001 -0.91679,6.7833 -2.09818,12.3333 -2.62531,12.3333 -1.68871,0 -10.22597,-20.1793 -15.23052,-36 -6.12333,-19.3574 -13.52792,-55.0617 -15.51689,-74.82112 -1.68153,-16.70515 -0.80426,-38.6367 2.1768,-54.41929 1.0292,-5.44891 1.69453,-10.08387 1.47851,-10.29989 -0.21603,-0.21603 -4.76255,4.39218 -10.10338,10.24045 -5.34084,5.84828 -10.24088,10.63323 -10.88899,10.63323 -1.35526,0 -0.86898,-3.09957 3.6607,-23.33333 5.35187,-23.90647 13.37248,-46.54838 25.15082,-70.99999 6.0935,-12.65 10.74439,-23 10.3353,-23 -1.01203,0 -8.91899,4.73577 -17.39223,10.41685 -3.8502,2.58145 -7.40371,4.2902 -7.89669,3.79722 -0.49298,-0.49299 2.05474,-5.24283 5.66161,-10.5552 32.68135,-48.13478 81.05394,-97.76811 134.56876,-138.07604 10.26666,-7.73296 18.96666,-14.4761 19.33333,-14.98475 0.36667,-0.50866 8.16667,-6.50523 17.33333,-13.32572 9.16667,-6.82048 24.32396,-18.29696 33.68288,-25.50328 9.35891,-7.20632 17.23978,-13.1024 17.51303,-13.1024 0.27326,0 0.89912,3.21981 1.3908,7.15515 0.49169,3.93533 1.7537,10.38533 2.80448,14.33333 3.13582,11.78202 2.56992,15.3505 -4.73284,29.84485 -8.53272,16.93551 -21.5691,52.01832 -21.39095,57.56615 0.0748,2.32805 0.89914,6.4373 1.83196,9.13167 l 1.69602,4.89885 -8.06435,7.84313 -8.06436,7.84313 10.88889,0.0252 c 5.99315,0.0139 11.08871,-0.5661 11.33333,-1.28993 0.24444,-0.72332 3.19224,5.53729 6.55066,13.91246 l 6.10622,15.22758 -3.32368,0.83419 c -1.82802,0.4588 -15.86561,0.71233 -31.19465,0.56339 l -27.87097,-0.2708 -6.04185,5.85748 c -11.02776,10.69127 -35.11461,40.19857 -35.11461,43.01673 0,0.46241 17.66198,0.84076 39.24885,0.84076 h 39.24885 l 0.57808,-3.66667 c 0.31794,-2.01667 0.43602,-1.26667 0.26239,1.66667 -0.17362,2.93333 0.0543,11.33333 0.50641,18.66666 l 0.82208,13.33334 -49.7382,-0.36497 -49.73819,-0.36497 -5.08777,11.03163 c -5.73568,12.43649 -11.30836,27.55632 -12.54296,34.03164 l -0.82621,4.33333 h 69.96666 69.96667 v 14.66666 14.66667 h -72.20141 -72.20141 l 0.84293,13 c 0.46362,7.15 2.20425,18.1 3.86808,24.33333 l 3.02515,11.33332 68.37688,0.3455 68.37689,0.3454 -0.37689,14.9879 -0.37689,14.9879 -61.11964,0.3468 -61.11964,0.3469 4.29971,7.6531 c 4.71698,8.3959 20.05121,29.144 26.59637,35.9865 l 4.14503,4.3333 h 43.93242 43.93242 v 14.6667 14.6667 h -34.18994 -34.18994 l 0.81376,7.6666 c 0.83527,7.8693 4.99516,22.8521 10.27287,37 4.43792,11.8968 24.61323,54.4976 31.38533,66.2712 5.78504,10.0576 6.91721,13.0692 4.90792,13.0552 -0.55,0 -7.6,-3.9371 -15.66667,-8.7405 z m 55.01938,-246.21134 c -0.49725,-1.26069 0.28926,-5.76069 1.7478,-10 1.45854,-4.23931 2.5826,-7.90784 2.49791,-8.15229 -0.0847,-0.24444 0.19602,-0.79444 0.6238,-1.22222 1.25492,-1.25492 0.89513,1.85826 -0.68338,5.9132 -0.80363,2.06441 -1.87085,6.45347 -2.3716,9.75347 -0.61894,4.07893 -1.19991,5.2661 -1.81453,3.70784 z m 5.64729,-24.4532 c 0,-1.87661 0.54367,-3.07601 1.20815,-2.66534 0.66449,0.41068 0.89451,1.94609 0.51116,3.41202 -0.95939,3.66874 -1.71931,3.33871 -1.71931,-0.74668 z m 9.43859,-30.69909 c 0.064,-1.55325 0.37992,-1.86919 0.80556,-0.80555 0.38516,0.9625 0.33779,2.1125 -0.10527,2.55555 -0.44305,0.44306 -0.75818,-0.34444 -0.70029,-1.75 z m 15.23751,-11.20694 c -0.46712,-0.75582 0.0681,-0.97935 1.25464,-0.52402 2.30989,0.88639 2.73252,1.84208 0.81461,1.84208 -0.69005,0 -1.62122,-0.59313 -2.06925,-1.31806 z m -60.6761,-12.01528 c 0,-0.73333 0.63541,-1.33333 1.41202,-1.33333 0.77661,0 1.0412,0.6 0.58798,1.33333 -0.45323,0.73334 -1.08864,1.33334 -1.41203,1.33334 -0.32338,0 -0.58797,-0.6 -0.58797,-1.33334 z m -1.34155,-5.66666 c -0.005,-0.91667 -0.86366,-3.30651 -1.90921,-5.31076 -1.04555,-2.00424 -1.40473,-3.9508 -0.79817,-4.32567 0.60656,-0.37487 1.56845,0.36496 2.13754,1.64409 1.26053,2.83327 2.1287,9.659 1.22854,9.659 -0.35777,0 -0.65418,-0.75 -0.6587,-1.66666 z m -18.93065,-5.66667 c 1.63874,-3.14939 6.67236,-8.66667 7.90693,-8.66667 0.4753,0 -0.89343,1.95 -3.04161,4.33334 -2.14818,2.38333 -4.43388,4.93333 -5.07933,5.66666 -0.64545,0.73334 -0.54914,0.13334 0.21401,-1.33333 z m 13.12881,-23.52892 c -0.47114,-4.50757 -0.85661,-11.10757 -0.85661,-14.66667 v -6.47107 h 10 10 v 14.66666 14.66667 h -9.14339 -9.1434 z m 64.32962,-22.80441 c -1.56582,-2.98392 -1.55892,-2.98638 1.28642,-0.46002 3.17805,2.82178 3.46844,3.46002 1.57426,3.46002 -0.70754,0 -1.99484,-1.35 -2.86068,-3 z M 669.665,826.49492 c 0,-0.27688 1.05,-1.32688 2.33333,-2.33334 2.11474,-1.65849 2.16191,-1.61133 0.50341,0.50341 -1.74183,2.221 -2.83674,2.92731 -2.83674,1.82993 z m 3.1867,-86.95119 c -0.29555,-1.62332 -0.64363,-5.39436 1.10887,-9.4855 l 10.30417,-24.11172 -1.43757,21.71992 -0.14355,5.99762 -4.42158,4.07371 c -4.21285,3.8814 -4.61468,6.17577 -5.41026,1.80597 z m 67.47996,-88.54539 c -1.77777,-1.14889 -1.77777,-1.2925 0,-1.2925 1.1,0 2.9,0.58162 4,1.2925 1.77778,1.14888 1.77778,1.29249 0,1.29249 -1.1,0 -2.9,-0.58162 -4,-1.29249 z M 724.665,627.44863 c -1.90727,-0.7696 -2.26573,-3.11696 -0.47599,-3.11696 0.65488,0 1.53605,0.9 1.95816,2 0.42211,1.1 0.6363,1.95263 0.47598,1.89474 -0.16032,-0.0579 -1.04149,-0.4079 -1.95815,-0.77778 z m -42.46706,-78.80404 c -1.46215,-0.9763 -5.04363,-6.97958 -4.16393,-6.97958 0.25456,0 1.79363,1.8 3.42016,4 3.08076,4.16694 3.19251,4.61465 0.74377,2.97958 z m 36.13372,-32.31291 c 1.32732,-1.46667 2.7133,-2.66667 3.07997,-2.66667 0.36667,0 -0.41932,1.2 -1.74663,2.66667 -1.32732,1.46666 -2.7133,2.66666 -3.07997,2.66666 -0.36667,0 0.41932,-1.2 1.74663,-2.66666 z m 28.66667,-6.44445 c 0,-0.61111 0.87361,-1.11111 1.94135,-1.11111 1.06774,0 1.63233,0.5 1.25464,1.11111 -0.37769,0.61111 -1.25129,1.11111 -1.94135,1.11111 -0.69005,0 -1.25464,-0.5 -1.25464,-1.11111 z m -94.76758,-57.06984 c -3.16741,-3.44362 -3.17208,-3.48289 -0.23241,-1.95309 1.64999,0.85866 2.99999,2.1755 2.99999,2.92631 0,0.75082 0.69271,0.937 1.53935,0.41375 0.95373,-0.58944 1.17742,-0.36576 0.58798,0.58798 -1.25777,2.0351 -1.17622,2.06801 -4.89491,-1.97495 z m -6.56575,-4.48571 c 0,-0.73333 0.63541,-1.33333 1.41202,-1.33333 0.77662,0 1.04121,0.6 0.58798,1.33333 -0.45322,0.73333 -1.08863,1.33333 -1.41202,1.33333 -0.32339,0 -0.58798,-0.6 -0.58798,-1.33333 z m 54.21393,-76.58997 c -0.56743,-1.47868 -0.33649,-1.89779 0.69459,-1.26055 0.98934,0.61144 1.27528,0.25268 0.79538,-0.99793 -0.4121,-1.07391 0.0725,-3.42234 1.07688,-5.21872 1.76636,-3.1592 1.79931,-3.11333 1.00599,1.40051 -1.17027,6.65861 -2.48892,8.90136 -3.57284,6.07669 z"
           id="path6"
           sodipodi:nodetypes="ssssssssssssssssssssssssssssssscccssscsscssscssscccsscccccccsscccccccsscccccccssscsssssssssssssssssssssssssscsssscssssssscccccccssssssssssscccssssssssssssssssssssssssssssssssssssssssssss" />
        <path
           style="mix-blend-mode:normal;fill:#eea221;fill-opacity:1"
           d="m 601.665,665.43499 c -35.51292,-27.63699 -60.77736,-50.20105 -83.53604,-74.60735 -29.67264,-31.8208 -64.5077,-76.92582 -60.45413,-78.27701 0.8128,-0.27094 2.4931,0.38526 3.734,1.45822 2.46884,2.1347 19.34716,11.65616 20.66243,11.65616 0.44915,0 -1.52122,-4.35 -4.3786,-9.66667 -15.8268,-29.44859 -31.45712,-75.12659 -34.10442,-99.66666 l -0.93493,-8.66666 10.33943,11.05531 c 5.68668,6.08042 10.51926,10.87547 10.73907,10.65567 0.2198,-0.21981 -0.39607,-3.82268 -1.3686,-8.00638 -5.12176,-22.0331 -3.5679,-59.43068 3.89341,-93.7046 0.31929,-1.46667 0.93282,-4.9999 1.36342,-7.85163 0.43059,-2.85173 1.125,-5.73851 1.54313,-6.41506 0.41813,-0.67655 1.03346,-3.14331 1.3674,-5.4817 0.60808,-4.25802 6.80295,-24.41007 8.27485,-26.91827 0.43034,-0.73334 0.96585,-2.51314 1.19001,-3.95512 0.22416,-1.44198 1.30535,-3.99198 2.40264,-5.66667 1.0973,-1.67468 1.71187,-3.04488 1.36571,-3.04488 -1.27171,0 3.57998,-9.96514 5.70578,-11.71937 1.2075,-0.99644 1.35275,-1.37451 0.32277,-0.84016 -1.24186,0.64428 -1.54768,0.4457 -0.90787,-0.58954 1.66634,-2.69619 3.44722,-0.22409 3.44722,4.78521 0,6.64271 2.71371,22.08997 4.15131,23.63053 0.7297,0.78195 1.18202,0.59009 1.18202,-0.50136 0,-2.85719 9.56056,-26.00729 11.1828,-27.07822 0.81613,-0.53877 1.02632,-0.98877 0.4671,-1 -1.28192,-0.0257 8.25927,-19.19465 9.8558,-19.80097 0.64767,-0.24596 0.83843,-0.99596 0.42392,-1.66666 -0.41452,-0.6707 -0.11826,-1.21946 0.65836,-1.21946 0.77661,0 1.30392,-0.45 1.17179,-1 -0.39172,-1.6306 4.633,-11 5.8992,-11 0.64079,0 0.85041,-0.50913 0.46583,-1.1314 -0.38459,-0.62228 0.48,-2.39719 1.92131,-3.94425 1.4413,-1.54706 2.62056,-3.43793 2.62056,-4.20193 0,-0.76399 0.6,-1.38908 1.33333,-1.38908 0.73333,0 1.33333,-0.75801 1.33333,-1.68447 0,-1.91682 9.20746,-16.08266 10.89359,-16.75998 0.60853,-0.24444 1.10641,-1.29444 1.10641,-2.33333 0,-1.03889 0.53002,-1.88889 1.17783,-1.88889 0.6478,0 1.50741,-1.26037 1.91025,-2.80082 1.36288,-5.21163 3.57859,-1.08972 3.57859,6.65729 0,4.2345 0.40446,8.10355 0.89881,8.5979 0.49434,0.49434 6.04434,-4.00356 12.33333,-9.99534 15.96503,-15.21055 30.7763,-27.79236 32.71711,-27.79236 0.45859,0 2.45148,-1.5 4.42865,-3.33333 1.97716,-1.83334 4.35098,-3.33334 5.27514,-3.33334 0.92416,0 1.68029,-0.53362 1.68029,-1.18582 0,-1.45984 25.62497,-18.81417 27.78053,-18.81417 0.85404,0 1.5528,-0.6 1.5528,-1.33334 0,-0.73333 0.85,-1.33333 1.88889,-1.33333 1.03889,0 2.08889,-0.47366 2.33333,-1.05257 0.64391,-1.52495 14.43582,-9.76555 17.2518,-10.30786 2.07305,-0.39923 2.19256,-0.0333 0.90905,2.78372 -0.81278,1.78386 -1.98147,3.24338 -2.59709,3.24338 -0.61562,0 -1.02501,0.45 -0.90974,1 0.11527,0.55 -6.77213,15.14128 -15.30534,32.42508 -16.91318,34.25723 -27.4492,62.58992 -28.59972,76.90824 l -0.66961,8.33334 h 34.84921 34.84922 v 14.66666 14.66667 h -43.82019 c -41.9663,0 -43.96525,0.1141 -47.24905,2.69714 -5.65701,4.44981 -32.93076,42.36571 -32.93076,45.78027 0,0.47076 27.91965,0.85592 62.04367,0.85592 H 684.419 l -0.377,15 -0.377,15 -68.22863,0.34538 -68.22864,0.34539 -2.72725,8.32128 c -5.0563,15.42755 -7.37748,39.58768 -3.81547,39.71346 0.91666,0.0324 31.21666,0.007 67.33333,-0.0565 74.95392,-0.1317 68.49815,-1.40329 62.43855,12.29853 -1.77546,4.01464 -3.89859,9.78929 -4.71806,12.83258 l -1.48995,5.53323 -15.61527,0.13311 c -8.5884,0.0732 -35.88394,0.20527 -60.65676,0.29347 l -45.04148,0.16036 0.85085,4.03986 c 1.40758,6.68324 9.91311,28.86008 14.15205,36.89926 l 3.96838,7.52606 57.88918,-0.72816 c 44.81849,-0.56376 57.88917,-0.36372 57.88917,0.88596 0,0.91395 0.72297,1.19808 1.66667,0.655 0.91666,-0.52751 1.23439,-0.48065 0.70606,0.10414 -0.52834,0.5848 0.22166,2.72362 1.66666,4.75293 2.05886,2.8914 2.62728,5.87742 2.62728,13.80169 v 10.11203 l -52.16197,0.34881 -52.16196,0.34881 8.36534,11.28176 c 4.60093,6.20497 14.10701,17.19883 21.12461,24.43081 l 12.75927,13.14905 30.70402,-0.32779 30.70402,-0.32778 0.377,14.89698 0.377,14.89697 h -14.04366 c -7.72402,0 -14.04367,0.49958 -14.04367,1.11018 0,0.6106 2.55,3.15201 5.66666,5.64758 7.99817,6.40427 21.34455,18.66169 23.39268,21.48402 1.25612,1.73094 1.3471,3.08643 0.33418,4.97909 -2.14002,3.99865 -65.44461,52.1133 -68.56351,52.11168 -0.82317,-4.3e-4 -7.79668,-4.90358 -15.49668,-10.8959 z m 68.88304,-240.76997 c 1.93973,-4.95 4.48458,-11.84198 5.65521,-15.3155 1.69106,-5.01778 2.74486,-6.31917 5.12842,-6.33334 2.93823,-0.0175 3,0.29787 3,15.3155 v 15.33333 h -8.65521 -8.65521 z"
           id="path5" />
        <path
           style="fill:#55cd4a;fill-opacity:1"
           d="m 709.665,1233.6766 c 0,-0.7269 4.57969,-9.8769 10.1771,-20.3333 24.31761,-45.4273 38.74,-82.8001 39.10971,-101.345 0.0431,-2.1624 -2.4437,-2.3333 -33.95348,-2.3333 h -34 v -14.6667 -14.6667 h 43.73844 43.73845 l 4.02711,-4.3333 c 9.11511,-9.8082 21.52184,-27.2764 27.00088,-38.0162 l 2.86877,-5.6233 -60.35349,-0.3469 -60.35349,-0.3469 -0.377,-15 -0.377,-15 7.71033,-0.026 c 4.24068,-0.014 34.51001,0 67.26517,0.025 l 59.55483,0.052 1.37016,-4.35891 c 3.39522,-10.80115 4.55131,-17.27247 5.34596,-29.92443 l 0.85202,-13.56555 -3.58173,-0.71634 c -1.96995,-0.39399 -29.33111,-0.36404 -60.80258,0.0666 l -57.22086,0.7829 3.99805,-15.50101 3.99804,-15.501 h 54.46563 c 50.98865,0 54.46472,-0.14896 54.45121,-2.33333 -0.0295,-4.77053 -5.89156,-21.15096 -13.60426,-38.01463 l -4.12289,-9.01462 -54.79588,0.34796 -54.79587,0.34796 -3.66666,-4.98846 c -4.30255,-5.85356 -4.28893,-5.72906 -1.52763,-13.96495 3.90272,-11.64027 0.50321,-10.89766 50.22028,-10.97036 24.24033,-0.0354 44.28913,-0.28024 44.55287,-0.54399 1.08564,-1.08563 -15.75683,-22.9066 -27.34637,-35.42975 l -12.43418,-13.43582 h -27.73739 -27.7374 l -1.82842,-4.33334 C 692.48779,788.2816 691.665,781.8316 691.665,776.3316 v -10 l 14.50043,-0.66667 14.50043,-0.66666 -10.50043,-9.34381 c -5.77524,-5.1391 -13.95262,-12.23737 -18.17197,-15.77393 l -7.8657,-6.18416 36.48806,-29.47202 c 19.93771,-16.10402 36.74059,-29.22608 37.28655,-29.22608 2.42273,0 51.64002,41.90682 73.59862,62.66667 14.67802,13.87673 39.18502,40.69584 54.38944,59.52083 13.53651,16.75989 32.48629,44.21187 31.32237,45.37579 -0.38156,0.38156 -3.28591,-1.08198 -6.45411,-3.25231 -6.36172,-4.35801 -17.13627,-10.07177 -17.73332,-9.404 -0.20966,0.23449 3.9879,9.42635 9.32791,20.42635 5.34001,11 12.46843,28.12032 15.84094,38.04517 5.78535,17.02549 15.00279,56.86724 13.50324,58.36679 -0.37984,0.37984 -5.23033,-4.05747 -10.77886,-9.86068 l -10.08824,-10.55129 0.79275,5.33334 c 3.7037,24.91729 3.13481,63.73744 -1.30735,89.21057 -4.68548,26.8686 -22.70118,80.7894 -26.99287,80.7894 -0.63553,0 -1.92548,-6.3 -2.86654,-14 -0.94107,-7.7 -2.18667,-14 -2.768,-14 -0.58132,0 -3.02469,4.95 -5.4297,11 -11.73213,29.5131 -46.81979,90.6657 -50.6598,88.2924 -0.69696,-0.4307 -1.26719,-4.2477 -1.26719,-8.4822 0,-4.2345 -0.37469,-8.0738 -0.83264,-8.5318 -0.45794,-0.4579 -7.20794,5.0181 -14.99999,12.169 -23.70831,21.7574 -44.98376,37.4224 -79.6395,58.6384 -14.00934,8.5764 -15.19453,9.1166 -15.19453,6.9258 z m 29.33333,-384.59959 c 0,-0.32338 -0.6,-0.9588 -1.33333,-1.41202 -0.73334,-0.45322 -1.33334,-0.18864 -1.33334,0.58798 0,0.77661 0.6,1.41202 1.33334,1.41202 0.73333,0 1.33333,-0.26459 1.33333,-0.58798 z m -47.11111,103.69908 c -0.48889,-0.48888 -0.88889,-7.38888 -0.88889,-15.33333 v -14.44444 h 11.85981 11.8598 l -3.14513,14.33333 c -1.72983,7.88333 -3.16674,14.78333 -3.19314,15.33333 -0.0594,1.23649 -15.26464,1.33893 -16.49245,0.11111 z"
           id="path4"
           sodipodi:nodetypes="sssscccccssccccccccsscsscccssscccssssscccsscccsscssssssssssscsssssssssssssssssssscccsss" />
        <path
           style="fill:#611462"
           d="m 672.33167,908.41034 c 0,-0.69005 0.59312,-1.62121 1.31806,-2.06925 0.75581,-0.46712 0.97934,0.0681 0.52401,1.25465 -0.88638,2.30989 -1.84207,2.73251 -1.84207,0.8146 z M 641.665,898.49491 c 0,-0.27687 1.05,-1.32687 2.33334,-2.33333 2.11474,-1.65849 2.1619,-1.61133 0.5034,0.50341 -1.74182,2.22099 -2.83674,2.9273 -2.83674,1.82992 z m 22.77193,-60.27436 c 0.064,-1.55326 0.37992,-1.8692 0.80556,-0.80556 0.38516,0.9625 0.33779,2.1125 -0.10527,2.55556 -0.44305,0.44305 -0.75818,-0.34445 -0.70029,-1.75 z M 685.665,809.16159 c 0,-0.27688 1.05,-1.32688 2.33333,-2.33334 2.11474,-1.65849 2.1619,-1.61133 0.50341,0.50341 -1.74183,2.221 -2.83674,2.9273 -2.83674,1.82993 z m -1.45957,-88.20771 0.044,-14.98193 6.12538,-15.65217 c 8.18108,-20.9051 8.04271,-20.33803 20.71173,-29.08798 6.18482,-4.2716 13.36458,-8.86719 15.95501,-10.21242 4.64702,-2.41324 4.83241,-2.40304 13.8908,0.76462 5.04951,1.76578 9.43973,2.95171 9.75604,2.6354 0.31631,-0.31631 -2.48455,-2.12556 -6.22414,-4.02055 -3.73958,-1.89499 -6.79924,-3.6811 -6.79924,-3.96913 0,-0.28803 4.65,-3.07692 10.33333,-6.19754 14.13314,-7.76027 9.79415,-8.28056 -5.87615,-0.70462 -6.98741,3.37813 -13.17093,5.8537 -13.74117,5.50127 -0.57023,-0.35242 -1.31667,-5.47551 -1.65874,-11.38464 -0.87028,-15.03353 -3.38767,-16.79689 -3.45259,-2.41844 -0.0276,6.10826 -0.0999,12.44126 -0.16074,14.07334 -0.0837,2.24449 -2.62125,4.4371 -10.41606,9 -5.668,3.31792 -10.62773,6.03258 -11.02162,6.03258 -0.39388,0 -2.02755,-6.81762 -3.63037,-15.15026 l -2.91422,-15.15026 4.10881,-10.8148 c 2.55981,-6.73764 5.00431,-11.099 6.48413,-11.56868 1.30641,-0.41464 3.86054,-2.68036 5.67584,-5.03494 1.81529,-2.35458 4.62406,-5.78106 6.2417,-7.61439 l 2.94117,-3.33333 -6.12333,-0.40639 c -4.57021,-0.30332 -6.12332,-0.95056 -6.12332,-2.55185 0,-1.18 -2.7,-7.41202 -6,-13.84893 -3.3,-6.43691 -6,-12.03858 -6,-12.44816 0,-0.40957 12.12916,-0.74467 26.9537,-0.74467 h 26.95371 l 7.82366,-8.33334 c 18.44555,-19.64719 33.98189,-39.06481 32.4678,-40.57889 -0.51976,-0.51977 -8.10278,-1.20023 -16.85115,-1.51214 -10.6831,-0.38089 -15.81444,-1.05406 -15.62693,-2.05006 0.35218,-1.87054 -13.5547,-3.53101 -16.63314,-1.98598 -2.12562,1.06682 -10.42099,1.61922 -10.42099,0.69395 0,-2.251 7.12539,-20.53045 8.66675,-22.23363 1.10315,-1.21897 1.65973,-2.56232 1.23683,-2.98522 -0.4229,-0.4229 14.97441,-0.84975 34.21624,-0.94855 19.24183,-0.0988 35.40299,-0.43789 35.91369,-0.75352 3.02554,-1.86988 17.29924,-37.96765 17.30039,-43.75219 l 5.8e-4,-2.89376 -53.5197,0.35175 -53.5197,0.35175 -5.13437,-15.68508 c -2.82391,-8.6268 -5.1403,-15.83508 -5.14754,-16.01842 -0.007,-0.18333 27.6714,-0.33333 61.5081,-0.33333 h 61.52128 l -0.72179,-11 c -0.39698,-6.05 -2.08234,-16.85 -3.74523,-24 l -3.02345,-13 h -59.57049 -59.5705 l 1.81474,-7.66666 c 0.9981,-4.21667 2.34927,-9.61608 3.00258,-11.99869 0.66467,-2.42399 0.68051,-4.64558 0.036,-5.04392 -1.05272,-0.65062 -7.93105,19.39313 -7.93105,23.11141 0,1.02855 -2.37533,1.59786 -6.66667,1.59786 h -6.66667 V 339.66502 324.33169 H 751.665 c 33.36666,0 60.66666,-0.4151 60.66666,-0.92245 0,-2.54392 -12.2932,-21.3056 -21.86048,-33.3631 l -10.80619,-13.61888 -44.33333,-0.0478 -44.33333,-0.0478 V 260.99833 245.665 h 33.51249 33.51249 l -0.64406,-9.00161 c -1.13899,-15.91881 -11.19022,-42.26076 -31.03198,-81.32765 -9.77578,-19.24776 -17.33541,-35.26707 -16.79919,-35.59848 0.53623,-0.3314 7.8319,3.44095 16.2126,8.383 32.65678,19.25753 59.57514,38.96497 80.18947,58.70822 7.1765,6.87325 13.07202,11.67325 13.10117,10.66667 0.23954,-8.27227 1.06575,-16.06001 1.77957,-16.77382 0.93655,-0.93656 2.24162,0.58194 9.82931,11.43678 19.9263,28.50626 32.95854,53.95881 45.07374,88.03105 1.18822,3.34168 2.05517,0.62875 4.05661,-12.69417 1.08465,-7.22021 2.51857,-13.67413 3.18649,-14.34204 3.30373,-3.30374 21.68718,51.06035 27.34059,80.85244 4.32621,22.79805 5.04048,72.37398 1.29597,89.95038 -0.67535,3.17 0.56226,2.30396 8.51342,-5.95745 5.11701,-5.31667 9.98355,-9.66667 10.81456,-9.66667 1.73385,0 1.33435,2.94278 -3.34865,24.66667 -4.83551,22.43137 -14.92602,51.29865 -25.28399,72.33333 -5.14583,10.45 -9.17193,19 -8.94688,19 1.16138,0 12.34527,-6.18388 17.20983,-9.5158 5.13396,-3.51644 8.42643,-4.7577 8.42643,-3.17676 0,1.51172 -10.53653,17.12574 -20.72157,30.70716 -30.06231,40.08715 -78.90855,86.82203 -119.89152,114.70925 -2.22946,1.51705 -7.35357,5.00112 -11.3869,7.74237 -4.03333,2.74125 -8.23333,6.4187 -9.33333,8.17211 -1.96836,3.13758 -71.55558,59.60207 -73.22099,60.48786 -0.58412,0.31068 -0.21435,1.40564 -0.22563,-5.07257 z m 2.7929,-144.17776 c 0,-7.82222 0.22284,-13.97222 0.49519,-13.66667 1.0979,1.23177 10.17148,24.582 10.17148,26.17563 0,1.10991 -1.8782,1.71326 -5.33333,1.71326 h -5.33334 z m 11.26795,-70.77778 c -1.15565,-2.75 -2.76532,-7.46466 -3.57705,-10.47703 -1.31698,-4.88736 -1.15468,-5.92811 1.50741,-9.66667 l 2.98328,-4.18963 h 19.16385 c 10.54012,0 19.4928,0.53226 19.89485,1.1828 0.40206,0.65053 -0.22306,1.10053 -1.38915,1 -1.99068,-0.17163 -3.88754,4.08111 -10.1772,22.8172 l -1.45469,4.33333 h -12.42506 -12.42507 z m 52.48205,4.08918 c 0.9625,-0.38516 2.1125,-0.33779 2.55555,0.10527 0.44306,0.44305 -0.34444,0.75819 -1.75,0.70029 -1.55325,-0.064 -1.86919,-0.37992 -0.80555,-0.80556 z m -47.41666,-76.13921 -12.33334,-0.38336 v -15.34984 -15.34984 l 7.66667,0.39987 7.66667,0.39988 5.05122,15.171 c 2.77817,8.34404 4.87817,15.24404 4.66666,15.33333 -0.2115,0.0893 -5.93455,-0.0102 -12.71788,-0.22104 z"
           id="path3"
           sodipodi:nodetypes="ssssssssssssssssccsssssssssssssssscsssscssssscssssssssssscccscscsscccssssscccssscccccccsssssssssssssssssssssssssscsssscsssscsssscccsssssscccccsss" />
        <path
           style="fill:#090808"
           d="M 1.6650405,684.33167 V 1.6650405 H 684.33167 1366.9983 V 684.33167 1366.9983 H 684.33167 1.6650405 Z M 724.85953,1226.7508 c 34.65574,-21.216 55.93119,-36.881 79.6395,-58.6384 7.79205,-7.1509 14.54205,-12.6269 14.99999,-12.169 0.45795,0.458 0.83264,4.2973 0.83264,8.5318 0,4.2345 0.57023,8.0515 1.26719,8.4822 3.84001,2.3733 38.92767,-58.7793 50.6598,-88.2924 2.40501,-6.05 4.84838,-11 5.4297,-11 0.58133,0 1.82693,6.3 2.768,14 0.94106,7.7 2.23101,14 2.86654,14 4.29169,0 22.30739,-53.9208 26.99287,-80.7894 4.44216,-25.47317 5.01105,-64.29332 1.30735,-89.21061 l -0.79275,-5.33334 10.08824,10.55129 c 5.54853,5.80321 10.39902,10.24052 10.77886,9.86068 1.49955,-1.49955 -7.71789,-41.3413 -13.50324,-58.36679 -3.37251,-9.92485 -10.50093,-27.04517 -15.84094,-38.04517 -5.34001,-11 -9.53757,-20.19186 -9.32791,-20.42635 0.59705,-0.66777 11.3716,5.04599 17.73332,9.404 3.1682,2.17033 6.07255,3.63387 6.45411,3.25231 1.16392,-1.16392 -17.78586,-28.6159 -31.32237,-45.37579 -30.73505,-38.05384 -63.48781,-70.20637 -111.55877,-109.51431 -8.8,-7.19581 -16.17991,-13.8179 -16.3998,-14.71575 -0.2199,-0.89784 3.3801,-4.21902 8,-7.3804 4.61989,-3.16138 10.22391,-6.99225 12.45337,-8.51305 41.22803,-28.12309 89.8222,-74.61954 119.89152,-114.71604 10.18504,-13.58142 20.72157,-29.19544 20.72157,-30.70716 0,-1.58094 -3.29247,-0.33968 -8.42643,3.17676 -4.86456,3.33192 -16.04845,9.5158 -17.20983,9.5158 -0.22505,0 3.80105,-8.55 8.94688,-19 10.35797,-21.03468 20.44848,-49.90196 25.28399,-72.33333 4.683,-21.72389 5.0825,-24.66667 3.34865,-24.66667 -0.83101,0 -5.69755,4.35 -10.81456,9.66667 -7.95116,8.26141 -9.18877,9.12745 -8.51342,5.95745 3.74451,-17.5764 3.03024,-67.15233 -1.29597,-89.95038 -5.65341,-29.79209 -24.03686,-84.15618 -27.34059,-80.85244 -0.66792,0.66791 -2.10184,7.12183 -3.18649,14.34204 -2.00144,13.32292 -2.86839,16.03585 -4.05661,12.69417 -12.1152,-34.07224 -25.14744,-59.52479 -45.07374,-88.03105 -7.58769,-10.85484 -8.89276,-12.37334 -9.82931,-11.43678 -0.71382,0.71381 -1.54003,8.50155 -1.77957,16.77382 -0.0292,1.00658 -5.92467,-3.79342 -13.10117,-10.66667 -20.61433,-19.74325 -47.53269,-39.45069 -80.18947,-58.70822 -8.3807,-4.94205 -15.67637,-8.7144 -16.2126,-8.383 -0.53622,0.33141 7.02341,16.35072 16.79919,35.59848 19.84176,39.06689 29.89299,65.40884 31.03198,81.32765 l 0.64406,9.00161 h -33.51249 -33.51249 v 15.33333 15.33333 l 44.33333,0.0478 44.33333,0.0478 10.80619,13.61888 c 9.56728,12.0575 21.86048,30.81918 21.86048,33.3631 0,0.50735 -27.3,0.92245 -60.66666,0.92245 h -60.66667 v 15.33333 15.33333 h 6.80932 c 5.9375,0 6.69461,0.29875 5.91336,2.33334 -0.49278,1.28333 -2.19752,6.06194 -3.7883,10.61912 l -2.89233,8.2858 4.33105,12.38087 c 2.38209,6.80948 4.32262,12.83087 4.31231,13.38087 -0.0103,0.55 -3.31874,1 -7.35207,1 h -7.33334 v 15.33333 15.33333 h 11.77778 c 6.47778,0 12.15207,0.3743 12.60954,0.83177 0.45747,0.45747 -0.28068,3.00747 -1.64033,5.66666 -5.09537,9.96549 -23.0097,40.90323 -24.68029,42.62243 -1.44089,1.48281 -3.72577,-0.44624 -13.40399,-11.31659 l -11.66702,-13.1041 0.71591,-10.01675 c 1.04746,-14.65565 1.06845,-14.68342 11.09772,-14.68342 h 8.52402 v -15.30118 -15.30118 l -71,0.005 c -39.05,0.003 -71.75,-0.0116 -72.66666,-0.0322 -3.56496,-0.0799 -1.2399,-24.26725 3.81547,-39.69197 l 2.72725,-8.32128 68.22864,-0.34539 68.22863,-0.34538 0.377,-15 0.377,-15 h -62.04366 c -34.12402,0 -62.04367,-0.38516 -62.04367,-0.85592 0,-3.41456 27.27375,-41.33046 32.93076,-45.78027 3.2838,-2.58304 5.28275,-2.69714 47.24905,-2.69714 h 43.82019 V 260.33146 245.6648 h -34.84922 -34.84921 l 0.66961,-8.33334 c 1.15052,-14.31832 11.68654,-42.65101 28.59972,-76.90824 8.53321,-17.2838 15.42061,-31.87508 15.30534,-32.42508 -0.11527,-0.55 0.29412,-1 0.90974,-1 0.61562,0 1.78431,-1.45952 2.59709,-3.24338 1.28351,-2.81699 1.164,-3.18295 -0.90905,-2.78372 -2.81598,0.54231 -16.60789,8.78291 -17.2518,10.30786 -0.24444,0.57891 -1.29444,1.05257 -2.33333,1.05257 -1.03889,0 -1.88889,0.6 -1.88889,1.33333 0,0.73334 -0.69876,1.33334 -1.5528,1.33334 -2.15556,0 -27.78053,17.35433 -27.78053,18.81417 0,0.6522 -0.75613,1.18582 -1.68029,1.18582 -0.92416,0 -3.29798,1.5 -5.27514,3.33334 -1.97717,1.83333 -3.97006,3.33333 -4.42865,3.33333 -1.94081,0 -16.75208,12.58181 -32.71711,27.79236 -6.28899,5.99178 -11.83899,10.48968 -12.33333,9.99534 -0.49435,-0.49435 -0.89881,-4.3634 -0.89881,-8.5979 0,-7.74701 -2.21571,-11.86892 -3.57859,-6.65729 -0.40284,1.54045 -1.26245,2.80082 -1.91025,2.80082 -0.64781,0 -1.17783,0.85 -1.17783,1.88889 0,1.03889 -0.49788,2.08889 -1.10641,2.33333 -1.68613,0.67732 -10.89359,14.84316 -10.89359,16.75998 0,0.92646 -0.6,1.68447 -1.33333,1.68447 -0.73333,0 -1.33333,0.62509 -1.33333,1.38908 0,0.764 -1.17926,2.65487 -2.62056,4.20193 -1.44131,1.54706 -2.3059,3.32197 -1.92131,3.94425 0.38458,0.62227 0.17496,1.1314 -0.46583,1.1314 -1.2662,0 -6.29092,9.3694 -5.8992,11 0.13213,0.55 -0.39518,1 -1.17179,1 -0.77662,0 -1.07288,0.54876 -0.65836,1.21946 0.41451,0.6707 0.22375,1.4207 -0.42392,1.66666 -1.59653,0.60632 -11.13772,19.77522 -9.8558,19.80097 0.55922,0.0112 0.34903,0.46123 -0.4671,1 -1.62224,1.07093 -11.1828,24.22103 -11.1828,27.07822 0,1.09145 -0.45232,1.28331 -1.18202,0.50136 -1.4376,-1.54056 -4.15131,-16.98782 -4.15131,-23.63053 0,-5.0093 -1.78088,-7.4814 -3.44722,-4.78521 -0.63981,1.03524 -0.33399,1.23382 0.90787,0.58954 1.02998,-0.53435 0.88473,-0.15628 -0.32277,0.84016 -2.1258,1.75423 -6.97749,11.71937 -5.70578,11.71937 0.34616,0 -0.26841,1.3702 -1.36571,3.04488 -1.09729,1.67469 -2.17848,4.22469 -2.40264,5.66667 -0.22416,1.44198 -0.75967,3.22178 -1.19001,3.95512 -1.4719,2.5082 -7.66677,22.66025 -8.27485,26.91827 -0.33394,2.33839 -0.94927,4.80515 -1.3674,5.4817 -0.41813,0.67655 -1.11254,3.56333 -1.54313,6.41506 -0.4306,2.85173 -1.04413,6.38496 -1.36342,7.85163 -7.46131,34.27392 -9.01517,71.6715 -3.89341,93.7046 0.97253,4.1837 1.5884,7.78657 1.3686,8.00638 -0.21981,0.2198 -5.05239,-4.57525 -10.73907,-10.65567 l -10.33943,-11.05531 0.93493,8.66666 c 2.6473,24.54007 18.27762,70.21807 34.10442,99.66666 2.85738,5.31667 4.82775,9.66667 4.3786,9.66667 -1.31527,0 -18.19359,-9.52146 -20.66243,-11.65616 -1.2409,-1.07296 -2.9212,-1.72916 -3.734,-1.45822 -4.05357,1.35119 30.78149,46.45621 60.45413,78.27701 23.22269,24.90389 53.54339,51.84571 86.38437,76.75783 7.06657,5.36048 12.46657,10.31395 11.99999,11.00771 -0.46657,0.69376 -9.24832,7.58835 -19.51498,15.32131 -53.51482,40.30793 -101.88741,89.94126 -134.56876,138.07604 -3.60687,5.31237 -6.15459,10.06221 -5.66161,10.5552 0.49298,0.49298 4.04649,-1.21577 7.89669,-3.79722 8.47324,-5.68108 16.3802,-10.41685 17.39223,-10.41685 0.40909,0 -4.2418,10.35 -10.3353,23 -11.77834,24.45161 -19.79895,47.09352 -25.15082,70.99999 -4.52968,20.23376 -5.01596,23.33333 -3.6607,23.33333 0.64811,0 5.54815,-4.78495 10.88899,-10.63323 5.34083,-5.84827 9.88735,-10.45648 10.10338,-10.24045 0.21602,0.21602 -0.44931,4.85098 -1.47851,10.29989 -2.98106,15.78259 -3.85833,37.71414 -2.1768,54.41929 1.98897,19.75945 9.39356,55.46375 15.51689,74.82115 5.00455,15.8207 13.54181,36 15.23052,36 0.52713,0 1.70852,-5.55 2.62531,-12.3333 0.91679,-6.7833 2.07609,-13.0838 2.57623,-14.001 0.52572,-0.9641 3.9015,5.2234 8.00191,14.6667 3.9009,8.9839 11.21186,23.9475 16.24656,33.2526 10.37175,19.169 30.21972,50.415 32.02436,50.415 0.65785,0 1.20429,-2.85 1.2143,-6.3333 0.0392,-13.6527 0.21181,-13.6526 14.59201,0.01 7.13405,6.7779 19.21522,17.1995 26.84706,23.159 23.22176,18.1333 66.85755,45.9608 68.88738,43.931 0.49,-0.49 -1.07267,-4.3129 -3.47261,-8.4954 -6.62389,-11.5436 -26.2561,-52.4009 -31.61504,-65.7952 -6.4517,-16.1255 -11.17689,-32.2471 -12.15646,-41.4759 l -0.81376,-7.6666 h 34.18994 34.18994 v -14.6667 -14.6667 h -43.93242 -43.93242 l -4.14503,-4.3333 c -6.54516,-6.8425 -21.87939,-27.5906 -26.59637,-35.9865 l -4.29971,-7.6531 61.11964,-0.3469 61.11964,-0.3468 0.37689,-14.9879 0.37689,-14.9879 -68.37689,-0.3454 -68.37688,-0.3455 -3.02515,-11.33335 c -1.66383,-6.23333 -3.40446,-17.18333 -3.86808,-24.33333 l -0.84293,-13 h 72.20141 72.20141 V 937.66498 922.99832 H 614.365 544.39834 l 0.82621,-4.33333 c 1.23353,-6.46974 6.80566,-21.59164 12.52835,-34 l 5.07315,-11 h 49.41947 c 38.65158,0 49.41749,0.36314 49.41032,1.66667 -0.005,0.91666 -4.65503,6.79388 -10.33333,13.06049 -15.51387,17.12121 -15.62599,17.79492 -0.69198,4.15796 l 13.6322,-12.44821 3.57002,7.78155 c 1.96351,4.27984 4.00035,11.08154 4.52631,15.11487 1.08353,8.30901 1.21089,8.30901 2.15185,0 0.55156,-4.87041 -0.21717,-8.09315 -4.08322,-17.11815 -2.61948,-6.11499 -4.76269,-11.36498 -4.76269,-11.66667 0,-0.30168 4.2,-0.54851 9.33333,-0.54851 h 9.33334 v -14.66667 -14.66666 h -10.01576 -10.01576 l 0.86386,-5.66667 c 0.54685,-3.58717 2.59598,-7.81136 5.58394,-11.511 7.41337,-9.17911 19.08639,-21.489 20.37724,-21.489 0.64512,0 3.27303,4.1702 5.83979,9.2671 l 4.66684,9.2671 -4.73428,11.06624 c -2.60386,6.08642 -5.85678,15.26623 -7.22872,20.39956 -2.87118,10.74296 -3.5329,9.08702 10.57837,26.47204 13.03683,16.0613 13.15706,16.31435 13.87221,29.19462 l 0.64777,11.66667 H 702.83908 690.911 l 0.377,15 0.377,15 8.4504,0.39999 c 6.17092,0.2921 8.27494,0.85725 7.79994,2.09509 -0.35776,0.93229 -2.14765,6.4523 -3.97754,12.26667 -3.26479,10.37366 -3.288,10.75255 -1.23969,20.23825 1.14807,5.31666 2.59671,9.66666 3.21921,9.66666 0.6225,0 0.85832,-1.35 0.52404,-3 -2.3656,-11.67666 -2.05888,-18.78094 1.284,-29.74053 l 3.43434,-11.25947 31.58598,-0.17122 c 17.37229,-0.0942 42.38598,-0.40256 55.58598,-0.6853 13.2,-0.28274 26.4044,-0.19076 29.34311,0.2044 l 5.34312,0.71848 -0.85624,13.63349 c -0.79849,12.71418 -1.95252,19.18352 -5.35016,29.99236 l -1.37016,4.35891 -59.55483,-0.052 c -32.75516,-0.028 -63.02449,-0.04 -67.26517,-0.025 l -7.71033,0.026 0.377,15 0.377,15 60.35349,0.3469 60.35349,0.3469 -2.86877,5.6233 c -5.47904,10.7398 -17.88577,28.208 -27.00088,38.0162 l -4.02711,4.3333 h -43.73845 -43.73844 v 14.6667 14.6667 h 34 c 31.50978,0 33.99659,0.1709 33.95348,2.3333 -0.36971,18.5449 -14.7921,55.9177 -39.10971,101.345 -9.74247,18.1997 -11.22891,21.655 -9.3159,21.655 0.47365,0 6.92365,-3.7114 14.33333,-8.2475 z M 718.5208,917.99832 c -1.29911,-7.85958 -1.0012,-15 0.62582,-15 0.8149,0 4.2649,2.26593 7.66667,5.03541 9.65174,7.85774 10.85171,8.69645 10.85171,7.58474 0,-0.57183 -6.79767,-7.9953 -15.10594,-16.49659 -15.20662,-15.55992 -20.89406,-22.17539 -20.89406,-24.30337 0,-0.63444 24.51117,-1.15352 54.46928,-1.15352 h 54.46928 l 4.11615,9 c 7.70619,16.84964 13.56802,33.23128 13.59752,38 0.0135,2.18439 -3.46383,2.33333 -54.47778,2.33333 h -54.49221 z m 17.81086,-69.74535 c 0,-0.77662 0.6,-1.0412 1.33334,-0.58798 0.73333,0.45322 1.33333,1.08864 1.33333,1.41202 0,0.32339 -0.6,0.58798 -1.33333,0.58798 -0.73334,0 -1.33334,-0.63541 -1.33334,-1.41202 z m -33.09032,-9.92131 c 1.4379,-3.66667 3.06637,-7.13158 3.61882,-7.6998 0.55244,-0.56822 6.03926,2.24198 12.19294,6.2449 l 11.18849,7.27803 -14.80731,0.42177 -14.80732,0.42176 z m 28.67693,4.83775 c -0.83367,-1.00591 -6.63171,-6.20945 -12.88452,-11.56343 -11.8942,-10.18444 -11.55072,-9.64118 -22.47986,-35.55389 -0.24445,-0.57957 11.86017,-1.05376 26.89915,-1.05376 h 27.3436 l 12.28483,13.28092 c 11.03931,11.93441 23.43541,27.54931 26.72816,33.66845 1.13916,2.11698 -0.86273,2.31059 -27.57362,2.66667 -23.13403,0.30839 -29.10025,0.024 -30.31774,-1.44496 z m -150.25326,0.32149 c 0,-2.80758 24.0798,-32.31941 35.03594,-42.93951 l 5.96317,-5.78027 30.83342,-0.21973 c 16.95839,-0.12085 30.83359,0.091 30.83378,0.47076 5.3e-4,1.0501 -6.12348,10.0395 -15.5298,22.79611 -8.04325,10.90807 -8.46985,11.86503 -8.46985,19 v 7.5134 h -39.33333 c -21.63334,0 -39.33333,-0.37835 -39.33333,-0.84076 z M 689.8748,781.66499 c -0.13116,-0.36666 -3.76163,-9.36666 -8.0677,-19.99999 l -7.82923,-19.33334 4.10512,-4.33333 c 2.25782,-2.38333 4.64173,-4.33333 5.29758,-4.33333 1.32804,0 10.95659,7.90473 26.78486,21.98952 l 10.50043,9.34381 -14.50043,0.66666 -14.50043,0.66667 -0.77586,8 c -0.42672,4.4 -0.88317,7.7 -1.01434,7.33333 z M 657.665,758.33166 c 3.98323,-4.03333 7.74207,-7.33333 8.35298,-7.33333 1.22868,0 6.23806,10.36246 6.2844,13 0.0211,1.20047 -3.03487,1.66666 -10.92517,1.66666 h -10.95445 z m 22,-144.83052 c -3.66667,-3.65894 -10.41667,-9.72368 -15,-13.47719 -4.58333,-3.75351 -8.33333,-7.3198 -8.33333,-7.92509 0,-0.60529 6.31965,-1.10052 14.04367,-1.10052 H 684.419 l -0.377,-14.89697 -0.377,-14.89698 -30.70402,0.32778 -30.70402,0.32779 -12.75927,-13.14905 c -7.0176,-7.23198 -16.52368,-18.22584 -21.12461,-24.43081 l -8.36534,-11.28176 52.10616,-0.34876 52.10615,-0.34876 0.38914,-10.3179 0.38914,-10.31791 5.52422,16 c 3.03832,8.8 6.46291,18.16991 7.6102,20.82203 l 2.08598,4.82203 -6.76325,9.59956 -6.76326,9.59957 -4.48351,-6.65764 c -3.99769,-5.93622 -7.21038,-9.39373 -7.21038,-7.75984 0,0.32071 2.76589,5.58344 6.14641,11.69497 l 6.1464,11.11188 -0.21029,15.18972 -0.21029,15.18973 5.86563,-0.47268 5.86563,-0.47267 -5.13508,14.39373 c -2.82429,7.91655 -5.13507,14.66655 -5.13507,15 0,1.68845 -2.63023,-0.20053 -8.66667,-6.22426 z m 25.24761,-7.34769 c 0.54191,-1.36865 1.67488,-5.33845 2.51771,-8.82178 1.53054,-6.32557 1.53938,-6.33333 7.21688,-6.33333 3.12645,0 5.68446,0.20668 5.68446,0.45928 0,0.2526 -1.54544,2.2026 -3.43431,4.33333 -1.88887,2.13073 -4.37384,5.24842 -5.52215,6.9282 -1.14832,1.67978 -3.29385,3.69958 -4.76786,4.48844 -2.32743,1.2456 -2.55039,1.10692 -1.69473,-1.05414 z m -9.91428,-46.91341 c 0,-6.59408 26.39046,-40.62857 34.92613,-45.04253 2.30702,-1.19301 8.89143,-2.57274 14.63202,-3.06607 11.22982,-0.96507 44.61788,0.26516 46.04947,1.69675 1.4399,1.4399 -14.53366,21.32069 -32.54321,40.50348 l -7.82366,8.33334 h -27.62037 c -25.81385,0 -27.62038,-0.15861 -27.62038,-2.42497 z m 11.45547,-34.564 c -0.88311,-0.88312 -6.12213,-12.16235 -6.12213,-13.18052 0,-0.27345 5.20458,-0.49718 11.56575,-0.49718 h 11.56575 l -3.23242,3.46602 c -5.21781,5.5949 -12.78489,11.20373 -13.77695,10.21168 z M 557.92567,475.20495 c -4.23448,-8.03055 -12.7505,-30.22156 -14.15048,-36.87327 l -0.84188,-4 60.03251,-0.2755 c 42.65045,-0.19574 60.03251,0.14581 60.03251,1.1796 0,2.05884 -3.04437,18.98837 -3.52732,19.61517 -0.22005,0.28559 -2.36643,-0.97548 -4.76972,-2.80239 -2.40329,-1.8269 -6.46962,-4.34247 -9.03629,-5.59014 l -4.66666,-2.26851 4,3.53249 c 2.2,1.94287 7.12747,6.1899 10.94994,9.43784 7.06119,5.99988 21.28735,23.62781 19.41072,24.05223 -0.56503,0.12778 -26.32413,0.52486 -57.24244,0.88238 l -56.21511,0.65004 z m 144.58323,-0.87327 c 5.36482,-9.28173 12.53277,-23.9261 16.14333,-32.98139 l 2.51784,-6.31472 53.58137,-0.35195 53.58137,-0.35194 -5.8e-4,2.89376 c -10e-4,6.64525 -14.70519,42.71248 -17.89794,43.90198 -0.78978,0.29424 -26.43648,0.68557 -56.99267,0.86962 l -55.5567,0.33464 z m 3.48182,-83.66916 c -5.11033,-14.51637 -5.12167,-14.70401 -1.60259,-26.52042 l 2.72312,-9.14375 h 59.71958 59.71958 l 3.02345,13 c 1.66289,7.15 3.34825,17.95 3.74523,24 l 0.72179,11 -61.85461,-0.002 -61.85461,-0.002 z"
           id="path2" />
      </g>
      <ellipse
         style="mix-blend-mode:hard-light;fill:none;stroke:#ffffff;stroke-width:10;stroke-dasharray:none;stroke-opacity:1"
         id="path8"
         cx="1291.5656"
         cy="672.27338"
         rx="618.11499"
         ry="618.11475" />
    </g>
  </g>
</svg>
